<svg id="visual" viewBox="0 0 900 600" width="900" height="600" xmlns="http://www.w3.org/2000/svg" xmlns:xlink="http://www.w3.org/1999/xlink" version="1.1"><rect x="0" y="0" width="900" height="600" fill="#000"></rect><path d="M0 382L21.5 373.2C43 364.3 86 346.7 128.8 322.8C171.7 299 214.3 269 257.2 279.3C300 289.7 343 340.3 385.8 340C428.7 339.7 471.3 288.3 514.2 270.8C557 253.3 600 269.7 642.8 292.5C685.7 315.3 728.3 344.7 771.2 349.3C814 354 857 334 878.5 324L900 314L900 601L878.5 601C857 601 814 601 771.2 601C728.3 601 685.7 601 642.8 601C600 601 557 601 514.2 601C471.3 601 428.7 601 385.8 601C343 601 300 601 257.2 601C214.3 601 171.7 601 128.8 601C86 601 43 601 21.5 601L0 601Z" fill="#000000"></path><path d="M0 314L21.5 310.2C43 306.3 86 298.7 128.8 299.7C171.7 300.7 214.3 310.3 257.2 319.5C300 328.7 343 337.3 385.8 345.2C428.7 353 471.3 360 514.2 348.3C557 336.7 600 306.3 642.8 293.5C685.7 280.7 728.3 285.3 771.2 284.2C814 283 857 276 878.5 272.5L900 269L900 601L878.5 601C857 601 814 601 771.2 601C728.3 601 685.7 601 642.8 601C600 601 557 601 514.2 601C471.3 601 428.7 601 385.8 601C343 601 300 601 257.2 601C214.3 601 171.7 601 128.8 601C86 601 43 601 21.5 601L0 601Z" fill="#002986"></path><path d="M0 296L21.5 310.5C43 325 86 354 128.8 374C171.7 394 214.3 405 257.2 390.7C300 376.3 343 336.7 385.8 317C428.7 297.3 471.3 297.7 514.2 306.5C557 315.3 600 332.7 642.8 342.3C685.7 352 728.3 354 771.2 349C814 344 857 332 878.5 326L900 320L900 601L878.5 601C857 601 814 601 771.2 601C728.3 601 685.7 601 642.8 601C600 601 557 601 514.2 601C471.3 601 428.7 601 385.8 601C343 601 300 601 257.2 601C214.3 601 171.7 601 128.8 601C86 601 43 601 21.5 601L0 601Z" fill="#1852b9"></path><path d="M0 423L21.5 409.5C43 396 86 369 128.8 372.2C171.7 375.3 214.3 408.7 257.2 428.7C300 448.7 343 455.3 385.8 445C428.7 434.7 471.3 407.3 514.2 402.8C557 398.3 600 416.7 642.8 420.2C685.7 423.7 728.3 412.3 771.2 397.3C814 382.3 857 363.7 878.5 354.3L900 345L900 601L878.5 601C857 601 814 601 771.2 601C728.3 601 685.7 601 642.8 601C600 601 557 601 514.2 601C471.3 601 428.7 601 385.8 601C343 601 300 601 257.2 601C214.3 601 171.7 601 128.8 601C86 601 43 601 21.5 601L0 601Z" fill="#3d7ceb"></path><path d="M0 463L21.5 456.7C43 450.3 86 437.7 128.8 440.7C171.7 443.7 214.3 462.3 257.2 457.3C300 452.3 343 423.7 385.8 410.5C428.7 397.3 471.3 399.7 514.2 405.5C557 411.3 600 420.7 642.8 419.7C685.7 418.7 728.3 407.3 771.2 409.8C814 412.3 857 428.7 878.5 436.8L900 445L900 601L878.5 601C857 601 814 601 771.2 601C728.3 601 685.7 601 642.8 601C600 601 557 601 514.2 601C471.3 601 428.7 601 385.8 601C343 601 300 601 257.2 601C214.3 601 171.7 601 128.8 601C86 601 43 601 21.5 601L0 601Z" fill="#4385f5"></path><path d="M0 481L21.5 483C43 485 86 489 128.8 479.2C171.7 469.3 214.3 445.7 257.2 446.3C300 447 343 472 385.8 477.5C428.7 483 471.3 469 514.2 465.7C557 462.3 600 469.7 642.8 471.5C685.7 473.3 728.3 469.7 771.2 471.5C814 473.3 857 480.7 878.5 484.3L900 488L900 601L878.5 601C857 601 814 601 771.2 601C728.3 601 685.7 601 642.8 601C600 601 557 601 514.2 601C471.3 601 428.7 601 385.8 601C343 601 300 601 257.2 601C214.3 601 171.7 601 128.8 601C86 601 43 601 21.5 601L0 601Z" fill="#3d7ceb"></path><path d="M0 485L21.5 489.3C43 493.7 86 502.3 128.8 500.2C171.7 498 214.3 485 257.2 482C300 479 343 486 385.8 490.2C428.7 494.3 471.3 495.7 514.2 489.2C557 482.7 600 468.3 642.8 468.3C685.7 468.3 728.3 482.7 771.2 491.5C814 500.3 857 503.7 878.5 505.3L900 507L900 601L878.5 601C857 601 814 601 771.2 601C728.3 601 685.7 601 642.8 601C600 601 557 601 514.2 601C471.3 601 428.7 601 385.8 601C343 601 300 601 257.2 601C214.3 601 171.7 601 128.8 601C86 601 43 601 21.5 601L0 601Z" fill="#1852b9"></path><path d="M0 533L21.5 535.2C43 537.3 86 541.7 128.8 539.8C171.7 538 214.3 530 257.2 524.7C300 519.3 343 516.7 385.8 511.5C428.7 506.3 471.3 498.7 514.2 505.3C557 512 600 533 642.8 540.8C685.7 548.7 728.3 543.3 771.2 533.3C814 523.3 857 508.7 878.5 501.3L900 494L900 601L878.5 601C857 601 814 601 771.2 601C728.3 601 685.7 601 642.8 601C600 601 557 601 514.2 601C471.3 601 428.7 601 385.8 601C343 601 300 601 257.2 601C214.3 601 171.7 601 128.8 601C86 601 43 601 21.5 601L0 601Z" fill="#002986"></path><path d="M0 543L21.5 547.3C43 551.7 86 560.3 128.8 566.8C171.7 573.3 214.3 577.7 257.2 579.5C300 581.3 343 580.7 385.8 579.7C428.7 578.7 471.3 577.3 514.2 574.2C557 571 600 566 642.8 567.2C685.7 568.3 728.3 575.7 771.2 574.5C814 573.3 857 563.7 878.5 558.8L900 554L900 601L878.5 601C857 601 814 601 771.2 601C728.3 601 685.7 601 642.8 601C600 601 557 601 514.2 601C471.3 601 428.7 601 385.8 601C343 601 300 601 257.2 601C214.3 601 171.7 601 128.8 601C86 601 43 601 21.5 601L0 601Z" fill="#000000"></path></svg>